# xmcd
#
# Track frame offsets: 
#        150
#        25119
#        50612
#        75484
#
# Disc length: 1343 seconds
#
# Revision: 2
# Processed by: cddbd v1.5.2PL0 Copyright (c) Steve Scherf et al.
# Submitted via: ExactAudioCopyFreeDBPlugin 1.0
#
DISCID=24053d04
DTITLE=東方神起 - サクラミチ
DYEAR=2015
DGENRE=Pop
TTITLE0=サクラミチ
TTITLE1=君のいない夜
TTITLE2=サクラミチ -Less Vocal-
TTITLE3=君のいない夜 -Less Vocal-
EXTD=YEAR: 2006.02..22
EXTT0=
EXTT1=
EXTT2=
EXTT3=
PLAYORDER=
